<svg width="1660" height="759" fill="none" xmlns="http://www.w3.org/2000/svg"><path fill-rule="evenodd" clip-rule="evenodd" d="M632.168 345.269l-47.3-20.472c-64.418-27.88-137.336-38.052-211.831-25.399C183.239 331.637 51.02 500.94 60.619 688.597L1586.63 429.391c-72.01-246.478-318.89-405.33-578.2-361.283-150.141 25.503-273.842 113.747-348.891 233.489l-27.371 43.672zm1013.972 74.012a577.51 577.51 0 0113.11 58.633L9.226 758.185a443.342 443.342 0 01-5.228-30.776 439.517 439.517 0 01-2.888-28.704c-14.885-220.442 139.379-420.666 361.879-458.459 86.289-14.657 170.957-2.866 245.71 29.487 83.75-133.624 221.975-232.29 389.682-260.777C1290.4-40.646 1568.3 140.112 1646.14 419.28z" fill="#E9E9E9"/></svg>