<svg width="1198" height="819" fill="none" xmlns="http://www.w3.org/2000/svg"><path d="M993.479 574.686c50.931-7.245 86.341-54.404 79.091-105.332-7.24-50.929-54.4-86.341-105.328-79.095-50.928 7.245-86.34 54.404-79.095 105.332 7.245 50.928 54.404 86.341 105.332 79.095z" stroke="#E30613" stroke-miterlimit="10"/><path d="M958.991 481.708l-13.928-9.328-24.962-5.484-45.286-31.597 4.007-5.732-9.891-7.933-28.862-22.624-7.182-12.53 11.013-7.34 11.187 10.839 36.795 20.85 23.413 19.425 23.475 12.216 32.466 21.703-12.245 17.535z" fill="#E30613"/><path d="M1022.89 530.526l-16.62-15.602-46.662.491-52.021-53.87 17.5-16.891-9.792-14.4-29.426-40.68 3.159-27.689 25.981-53.487 17.614 49.561 53.359 9.799 22.168 35.735-10.608 54.357 122.798-9.658-97.45 82.334z" fill="#E30613"/><path d="M1044.16 486.2l-22.99-24.58-15.87-91.959-21.58-16.356-22.489-56.374 53.149 16.656 29.78 172.613zm-80.619-151.32l-5.525-.403-17.688-27.643-3.267-15.566.366-.053a14.65 14.65 0 0010.925-3.422l.309-.214 4.627 8.648 8.389 31.752 1.864 6.901z" fill="#E30613"/><path d="M1087.07 524.895c-12.78 27.426-1.88 55.323-7.1 57.355-28.13 11.135-98.502-17.267-97.655-25.403.578-5.72-10.043-66.295 6.161-87.043 5.753-7.306 39.694 21.151 44.164 16.066 19.93-22.738 60.85 25.205 54.43 39.025zm-135.149 3.331l20.019 9.888-47.256 69.149-138.251 119.963-36.147-22.028-7.961-23.254-11.327-.121-8.834-3.838 20.488-19.047-16.957-16.777L875.64 537.787l6.345 13.566 35.111-21.298-6.244 34.173 41.069-36.002z" fill="#E30613"/><path d="M1099.31 481.614l-9.76 6.348c.55 9.806-7.94 6.02-3.23 13.808l-22.51 13.392-11.59-9.798 7.9-8.936a49.764 49.764 0 0011.75-23.917l2.6-13.955 4.77 2.718-6.22 23.369 9.32-16.339 5.26 2.851-.72 6.115 9.59-6.595 2.84 10.939z" fill="#E30613"/><path d="M1142.21 490.898c23.66 18.098-68.07 73.297-96.55 81.969-28.48 8.671-1.78-44.749-6.58-50.52-19.01-22.87 11.91-33.994 40.36-42.661 28.46-8.666-16.22-49.113 62.77 11.212z" fill="#fff"/><path d="M1043.54 521.408c3.05 21.439 47.18 16.281 25.77 19.326a39.193 39.193 0 01-29.06-7.464 39.165 39.165 0 01-15.27-25.83c-1.53-10.719 18.08-23.257 37.49-26.018 19.41-2.761-20.46 29.266-18.93 39.986zm65.37-19.897c5.47-.779 9.28-5.852 8.5-11.331-.77-5.479-5.85-9.289-11.33-8.51-5.48.78-9.29 5.853-8.51 11.332.78 5.479 5.86 9.289 11.34 8.509z" fill="#E30613"/><path d="M907.787 543.879l26.162-11.873-377.404 137.547L922.793 384.83l7.648-52.475-527.896 424.521 543.878-528.721 10.069-10.636L543.71 483.592l422.06-389.46-10.047-25.98-412.013 415.44 320.219-185.691-117.344 107.684-350.093 357.451 475.236-375.221-348.663 295.162 384.722-139.098z" fill="#1D1D1B"/><path d="M962.741 19.129l-82.753 579.786 6.99-7.21-26.621 138.76a14.39 14.39 0 0011.846 16.893l13.418 2.167a14.403 14.403 0 0010.853-2.67 14.389 14.389 0 005.669-9.632l16.349-121.199 12.754-17.065 58.971-472.405a148.56 148.56 0 00-19.067-93.202l-8.228-14.147" fill="#1D1D1B"/><path d="M985.427 131.311l-59.266 474.146L964.27 246.64l-81.708 336.931 73.489-488.056 9.601 121.686 19.775-85.89z" fill="#fff"/><path d="M1017.49 255.235l13.82-12.427 1.41 20.891" fill="#1D1D1B"/><path d="M875.823 624.34l26.188 5.196a2.76 2.76 0 012.168 3.242l-1.669 8.41a2.753 2.753 0 01-3.241 2.168l-26.188-5.196 2.742-13.82zm-3.843 25.955l26.188 5.196a2.759 2.759 0 012.168 3.242l-1.669 8.41a2.755 2.755 0 01-3.241 2.168l-26.188-5.196 2.742-13.82zm-6.302 28.552l26.188 5.197a2.756 2.756 0 012.168 3.241l-1.676 8.443a2.758 2.758 0 01-3.241 2.168l-26.188-5.196 2.742-13.82.007-.033zm-3.89 26.015l26.188 5.196a2.759 2.759 0 012.168 3.242l-1.669 8.41a2.755 2.755 0 01-3.241 2.168l-26.188-5.196 2.742-13.82z" fill="#fff"/><path d="M1145.24 337.663l-97.23-64.182 10.52 131.03m27.98 43.195l-59.07-22.028 21.53 67.819" fill="#1D1D1B"/><path d="M10.748 560.134l5.104-3.281 13.847 9.686.23-.148-3.066-16.618 5.105-3.282 12.586 19.576-4.015 2.581-8.192-12.741-.163.104 3.065 15.903-2.733 1.758-13.228-9.437-.162.105 8.223 12.789-4.015 2.581-12.586-19.576zm43.957-.189c-1.485.955-2.971 1.465-4.46 1.531a7.695 7.695 0 01-4.204-1.054c-1.32-.763-2.462-1.897-3.43-3.401-.974-1.517-1.534-3.031-1.677-4.542-.147-1.517.115-2.938.787-4.261.673-1.334 1.752-2.478 3.237-3.433 1.485-.954 2.97-1.459 4.457-1.514 1.49-.066 2.893.283 4.213 1.047 1.316.757 2.46 1.894 3.436 3.411.967 1.504 1.524 3.014 1.671 4.532a7.674 7.674 0 01-.796 4.267c-.671 1.324-1.75 2.463-3.234 3.417zm-2.009-3.166c.676-.435 1.117-.988 1.323-1.662.203-.679.204-1.427.003-2.244-.195-.821-.566-1.658-1.115-2.512-.55-.854-1.157-1.539-1.823-2.057-.66-.521-1.34-.831-2.043-.929-.702-.098-1.39.07-2.066.505-.682.438-1.13 1.001-1.346 1.689-.209.684-.216 1.436-.022 2.257.201.816.576 1.651 1.125 2.505.549.854 1.153 1.542 1.813 2.063.666.518 1.353.824 2.062.917.71.084 1.407-.094 2.09-.532zm17.262-6.708c-1.115.717-2.31 1.079-3.583 1.087-1.271-.002-2.532-.394-3.782-1.175-1.248-.792-2.398-2.007-3.45-3.644-1.082-1.683-1.71-3.256-1.886-4.719-.18-1.47.002-2.771.544-3.903a6.58 6.58 0 012.432-2.752c.822-.529 1.597-.829 2.325-.901.73-.082 1.398-.025 2.002.172a6.24 6.24 0 011.558.7l.124-.079-4.732-7.36 4.063-2.612 12.586 19.575-4.015 2.581-1.512-2.351-.172.111c.071.53.06 1.109-.032 1.736-.09.616-.328 1.233-.714 1.851-.38.614-.965 1.175-1.756 1.683zm-.793-4.07c.657-.422 1.096-.957 1.32-1.605.225-.658.25-1.39.074-2.196-.17-.81-.535-1.651-1.096-2.524-.562-.873-1.17-1.553-1.826-2.041-.656-.488-1.326-.76-2.01-.815-.684-.056-1.355.127-2.011.549-.67.431-1.116.975-1.342 1.633-.225.658-.249 1.385-.07 2.18.178.795.539 1.617 1.084 2.464.549.854 1.152 1.533 1.81 2.038.66.494 1.335.781 2.025.86.692.068 1.373-.113 2.042-.543zm3.713-25.813l8.237 4.134.153-.099-.323-9.222 4.674-3.005.32 13.629 12.4 5.86-4.76 3.061-8.31-4.1-.153.098.28 9.263-4.74 3.048-.166-13.727-12.306-5.923 4.694-3.017zm110.444-7.661l-1.679-4.243 19.993-7.915 1.68 4.244-7.453 2.95 7.957 20.1-5.088 2.014-7.957-20.1-7.453 2.95zm36.891 9.06c-1.847.73-3.599.97-5.256.719-1.653-.262-3.123-.954-4.411-2.076-1.29-1.13-2.306-2.63-3.046-4.501-.747-1.886-1.035-3.678-.864-5.377.168-1.707.766-3.218 1.794-4.533 1.034-1.326 2.474-2.354 4.32-3.085 1.847-.731 3.596-.965 5.249-.703 1.658.252 3.132.942 4.423 2.072 1.287 1.122 2.304 2.626 3.051 4.512.74 1.87 1.026 3.659.859 5.366a8.635 8.635 0 01-1.807 4.537c-1.028 1.315-2.466 2.338-4.312 3.069zm-1.529-3.933c.84-.332 1.447-.847 1.821-1.546.372-.706.535-1.531.491-2.476-.036-.948-.264-1.953-.685-3.015-.42-1.062-.941-1.951-1.564-2.667-.615-.719-1.299-1.209-2.053-1.47-.754-.26-1.551-.224-2.391.108-.848.336-1.465.86-1.852 1.572-.38.709-.551 1.538-.515 2.486.044.945.276 1.949.697 3.01.42 1.062.938 1.953 1.552 2.672.623.716 1.315 1.203 2.077 1.46.767.247 1.574.202 2.422-.134zm13.667-1.285l-7.228-18.258 15.964-6.319 7.227 18.258-4.837 1.915-5.652-14.276-6.347 2.513 5.651 14.276-4.778 1.891zm26.628-24.427l1.59 4.017-11.102 4.395-1.59-4.018 11.102-4.394zm17.458 7.388c-1.87.741-3.636.981-5.297.722-1.656-.27-3.125-.972-4.408-2.105-1.274-1.136-2.277-2.627-3.008-4.474-.74-1.87-1.029-3.653-.867-5.349.168-1.707.765-3.222 1.79-4.544 1.023-1.331 2.457-2.362 4.303-3.093 1.593-.63 3.102-.893 4.528-.788 1.426.105 2.694.542 3.805 1.312 1.112.77 1.982 1.846 2.612 3.229l-4.778 1.891c-.496-.858-1.143-1.45-1.941-1.775-.793-.337-1.653-.322-2.58.045-.785.31-1.386.796-1.803 1.456-.412.649-.62 1.442-.625 2.379-.005.937.22 1.98.675 3.129.461 1.164 1.011 2.092 1.651 2.783.648.688 1.35 1.129 2.106 1.325.756.196 1.526.139 2.31-.172.579-.229 1.051-.553 1.416-.973.374-.423.622-.92.744-1.491.127-.582.111-1.212-.048-1.892l4.779-1.891c.473 1.426.578 2.805.317 4.136-.256 1.321-.861 2.514-1.814 3.578-.954 1.065-2.243 1.919-3.867 2.562zm4.359-18.651l-1.577-3.982 16.547-6.549 1.576 3.982-5.884 2.329 5.651 14.276-4.826 1.91-5.651-14.276-5.836 2.31zm29.956 5.054c-1.165.461-2.283.67-3.354.627-1.075-.052-2.036-.373-2.884-.963-.843-.601-1.503-1.504-1.979-2.708-.402-1.015-.553-1.94-.453-2.777a4.866 4.866 0 01.862-2.267 7.954 7.954 0 011.811-1.816 17.907 17.907 0 012.413-1.478 70.469 70.469 0 002.445-1.325c.609-.36 1.021-.698 1.235-1.012.215-.314.246-.665.092-1.054l-.028-.071c-.298-.753-.766-1.241-1.405-1.465-.631-.227-1.378-.169-2.242.172-.911.361-1.556.85-1.935 1.468-.382.609-.541 1.25-.477 1.921l-4.834 1.474c-.201-1.204-.113-2.348.264-3.432.374-1.093 1.026-2.075 1.955-2.946.934-.883 2.13-1.613 3.588-2.191a12.57 12.57 0 013.053-.796c1.029-.132 2.003-.092 2.922.122a5.776 5.776 0 012.486 1.244c.727.61 1.306 1.458 1.736 2.544l4.874 12.314-4.802 1.901-1.002-2.532-.143.057a5.53 5.53 0 01-.579 1.975c-.322.623-.779 1.193-1.371 1.712-.595.51-1.345.944-2.248 1.302zm.067-4.069c.745-.295 1.344-.702 1.799-1.221a3.76 3.76 0 00.863-1.744 3.362 3.362 0 00-.195-1.916l-.767-1.938a2.917 2.917 0 01-.541.544c-.238.186-.513.382-.826.588-.315.199-.633.393-.951.583l-.876.498a6.732 6.732 0 00-1.392 1.033c-.369.365-.611.759-.728 1.182-.121.414-.087.859.102 1.334.272.689.731 1.118 1.374 1.285.649.155 1.361.08 2.138-.228zm22.3-18.081l1.576 3.982-9.533 3.774-1.576-3.982 9.533-3.774zm-10.683-3.993l7.228 18.258-4.838 1.915-7.228-18.258 4.838-1.915zm11.043-4.371l7.227 18.258-4.802 1.901-7.227-18.258 4.802-1.901zm11.847 22.616l-3.708-9.366 1.403-.556c.304-.413.469-.946.495-1.598.034-.655-.019-1.39-.159-2.206a22.384 22.384 0 00-.584-2.587c-.253-.918-.521-1.838-.804-2.762l-1.887-6.155 14.003-5.543 5.637 14.24 2.829-1.12 3.707 9.367-4.826 1.91-2.117-5.349-11.162 4.419 2.118 5.349-4.945 1.957zm2.735-11.917l6.882-2.724-4.093-10.342-4.922 1.948.629 2.144c.637 2.003 1.098 3.736 1.384 5.199.283 1.456.323 2.714.12 3.775zm24.374-4.602c-1.165.461-2.283.67-3.355.626-1.074-.051-2.035-.372-2.883-.962-.843-.601-1.503-1.504-1.98-2.709-.401-1.014-.552-1.94-.453-2.776.1-.837.388-1.593.863-2.267a7.958 7.958 0 011.811-1.817 17.993 17.993 0 012.412-1.477 71.614 71.614 0 002.446-1.325c.609-.361 1.021-.698 1.235-1.012.215-.314.246-.665.092-1.054l-.028-.071c-.298-.753-.767-1.241-1.405-1.465-.631-.227-1.378-.17-2.242.172-.911.361-1.556.85-1.935 1.468-.382.609-.541 1.25-.477 1.921l-4.834 1.473c-.201-1.203-.113-2.347.264-3.431.374-1.093 1.026-2.075 1.955-2.947.934-.883 2.13-1.613 3.588-2.19a12.57 12.57 0 013.053-.796c1.029-.132 2.003-.092 2.922.122a5.786 5.786 0 012.486 1.243c.727.611 1.306 1.459 1.735 2.544l4.875 12.315-4.802 1.901-1.002-2.532-.143.057a5.53 5.53 0 01-.579 1.975 5.858 5.858 0 01-1.371 1.711c-.596.511-1.345.945-2.248 1.303zm.067-4.069c.744-.295 1.344-.702 1.799-1.221a3.76 3.76 0 00.863-1.744 3.362 3.362 0 00-.195-1.916l-.767-1.938a2.917 2.917 0 01-.541.544c-.238.186-.513.382-.826.588-.315.199-.633.393-.951.583l-.876.498a6.73 6.73 0 00-1.392 1.032c-.369.366-.612.76-.729 1.182-.12.415-.086.859.102 1.335.273.689.732 1.118 1.375 1.284.648.156 1.361.08 2.138-.227zm16.717 4.946l-9.938-25.105 4.993-1.976 1.214 3.066.226-.089c.027-.579.15-1.205.37-1.879.224-.684.609-1.332 1.155-1.942.552-.622 1.339-1.135 2.361-1.54a7.38 7.38 0 014.099-.412c1.398.244 2.71.93 3.936 2.058 1.222 1.12 2.248 2.726 3.076 4.818.806 2.037 1.158 3.886 1.055 5.549-.097 1.652-.566 3.062-1.406 4.228-.835 1.156-1.946 2.008-3.333 2.557-.982.389-1.883.557-2.701.505-.81-.055-1.53-.242-2.16-.561a6.676 6.676 0 01-1.597-1.114l-.154.061 3.868 9.771-5.064 2.005zm-1.367-17.938c.43 1.085.955 1.973 1.576 2.662.621.689 1.306 1.146 2.056 1.372.746.218 1.527.166 2.343-.158.825-.326 1.433-.828 1.824-1.505.389-.686.57-1.491.543-2.415-.022-.935-.243-1.934-.663-2.996-.418-1.054-.931-1.923-1.541-2.607-.61-.685-1.29-1.14-2.039-1.365-.75-.226-1.54-.175-2.372.155-.825.326-1.436.82-1.834 1.482-.39.658-.577 1.447-.561 2.367.015.92.238 1.922.668 3.008zm12.42-10.87l-1.577-3.982 16.547-6.55 1.576 3.982-5.884 2.329 5.651 14.276-4.826 1.911-5.651-14.276-5.836 2.31zm23.434-7.393l5.456-2.16c2.417-.956 4.532-1.124 6.345-.504 1.81.613 3.096 1.882 3.858 3.808.496 1.252.627 2.474.393 3.666-.237 1.185-.825 2.27-1.764 3.256-.942.978-2.217 1.785-3.826 2.422l-8.629 3.416-7.228-18.258 4.838-1.915 5.651 14.276 3.792-1.501c.848-.336 1.461-.826 1.838-1.47.377-.645.438-1.301.183-1.97a2.312 2.312 0 00-1.515-1.394c-.725-.235-1.512-.185-2.36.15l-5.456 2.16-1.576-3.982zm20.114 6.667l-7.227-18.258 5.064-2.004 7.227 18.258-5.064 2.004zm-48.472 204.434l-1.049-2.269.715-.331c.357-.165.625-.341.805-.528.177-.192.29-.403.34-.635.052-.238.062-.509.031-.812l-.039-.507-9.19-7.283 2.888-1.336 6.112 5.061-.408-7.7 2.85-1.317.356 12.715a8.637 8.637 0 01-.148 1.727 3.71 3.71 0 01-.67 1.546c-.344.473-.878.876-1.6 1.21l-.993.459zm13.987-14.028l.998 2.16-5.169 2.391-.999-2.16 5.17-2.391zm-6.051-1.881l4.58 9.901-2.624 1.214-4.579-9.901 2.623-1.214zm5.989-2.77l4.579 9.902-2.604 1.204-4.579-9.901 2.604-1.205zm7.658 4.08l.661-7.927 2.707-1.253 4.58 9.902-2.618 1.21-2.913-6.298-.638 7.941-2.727 1.261-4.58-9.901 2.624-1.214 2.904 6.279zm10.149-.297l-4.58-9.901 2.746-1.27 1.777 3.842.774-.358.917-5.088 3.223-1.491-1.228 6.531 5.847 3.353-3.262 1.508-4.068-2.383-1.025.474 1.625 3.513-2.746 1.27zm13.546-6.038c-.632.292-1.245.443-1.841.452a2.991 2.991 0 01-1.629-.443c-.487-.307-.881-.788-1.183-1.441-.255-.55-.367-1.059-.338-1.526.029-.467.165-.895.407-1.284.243-.389.559-.743.948-1.064a9.935 9.935 0 011.292-.895c.548-.327.986-.597 1.315-.812.326-.219.544-.419.654-.6.109-.181.115-.376.018-.587l-.018-.039c-.189-.408-.464-.664-.825-.768-.357-.106-.77-.051-1.238.165-.495.229-.837.52-1.028.875-.193.35-.261.71-.204 1.08l-2.636.969a3.812 3.812 0 01.039-1.912c.174-.618.505-1.183.993-1.695.49-.519 1.131-.962 1.921-1.327a6.932 6.932 0 011.669-.537 4.543 4.543 0 011.625-.024c.52.088.993.292 1.417.612.423.316.77.768 1.043 1.357l3.088 6.678-2.604 1.205-.635-1.374-.077.036a3.087 3.087 0 01-.26 1.114 3.258 3.258 0 01-.707.992c-.314.302-.716.566-1.206.793zm-.09-2.259c.404-.187.724-.431.96-.733a2.1 2.1 0 00.424-.995 1.869 1.869 0 00-.168-1.057l-.486-1.05c-.06.095-.155.201-.283.318a6.829 6.829 0 01-.44.352c-.169.12-.339.238-.51.353l-.47.304a3.76 3.76 0 00-.74.616 1.49 1.49 0 00-.367.678c-.053.234-.021.48.099.737.173.374.44.597.802.67.365.066.758.002 1.179-.193zm7.13-1.224l-1.021-2.173.329-.152c.232-.107.406-.256.522-.445.118-.195.173-.448.166-.757-.008-.31-.078-.692-.21-1.148a15.765 15.765 0 00-.604-1.645l-1.867-4.458 7.529-3.482 4.58 9.901-2.617 1.21-3.581-7.741-2.443 1.13 1.244 3.094c.344.848.573 1.608.686 2.281.118.671.123 1.263.016 1.776-.108.51-.321.947-.637 1.313-.316.365-.739.67-1.267.914l-.825.382zm10.102-12.998l2.958-1.369c1.311-.606 2.479-.766 3.504-.478 1.023.283 1.776.947 2.259 1.991.314.679.425 1.353.333 2.022-.095.664-.387 1.285-.877 1.861-.492.572-1.174 1.059-2.046 1.463l-4.68 2.164-4.58-9.901 2.624-1.213 3.581 7.741 2.056-.951c.46-.212.784-.503.973-.873.19-.369.203-.735.04-1.098a1.288 1.288 0 00-.883-.726c-.41-.108-.845-.055-1.305.157l-2.959 1.369-.998-2.159zm16.217-6.515l.998 2.159-5.169 2.391-.999-2.159 5.17-2.391zm-6.051-1.881l4.58 9.901-2.624 1.213-4.579-9.901 2.623-1.213zm5.989-2.77l4.579 9.901-2.604 1.205-4.579-9.902 2.604-1.204zm5.259 1.261l2.958-1.369c1.311-.606 2.479-.765 3.504-.478 1.023.283 1.776.947 2.259 1.992.314.679.425 1.352.333 2.021-.095.665-.387 1.285-.877 1.861-.492.572-1.174 1.06-2.046 1.463l-4.68 2.165-4.58-9.902 2.624-1.213 3.581 7.742 2.056-.951c.46-.213.784-.504.973-.873a1.21 1.21 0 00.04-1.099 1.286 1.286 0 00-.883-.726c-.41-.107-.845-.055-1.305.158l-2.959 1.368-.998-2.159zm11.365 3.069l-4.58-9.901 2.746-1.27 4.58 9.901-2.746 1.27zm5.889-7.122l.661-7.927 2.707-1.252 4.58 9.901-2.617 1.211-2.913-6.298-.639 7.941-2.727 1.261-4.58-9.902 2.624-1.213 2.904 6.278zm-1.408-11.164l1.915-.886c.357.784.358 1.548.003 2.291-.351.742-1.014 1.338-1.99 1.789-.98.453-1.866.574-2.658.361-.792-.213-1.369-.71-1.731-1.492l1.902-.88c.133.299.351.522.653.668.307.145.695.11 1.163-.107.456-.211.729-.478.819-.801a1.325 1.325 0 00-.076-.943zm16.326 12.183l-2.349-5.079.761-.352c.155-.239.23-.54.224-.902a5.566 5.566 0 00-.157-1.219c-.098-.45-.233-.922-.405-1.417-.169-.5-.346-1.003-.532-1.506l-1.239-3.355 7.594-3.513 3.571 7.723 1.535-.71 2.349 5.08-2.617 1.21-1.342-2.9-6.053 2.799 1.342 2.901-2.682 1.24zm1.145-6.695l3.732-1.727-2.594-5.608-2.668 1.235.415 1.169c.416 1.091.726 2.038.931 2.841.202.798.263 1.495.184 2.09zm11.414-7.032l.66-7.928 2.708-1.252 4.579 9.901-2.617 1.211-2.913-6.298-.639 7.941-2.726 1.261-4.58-9.901 2.624-1.214 2.904 6.279zm8.343-2.865l2.662-1.232c.164.321.429.511.796.571.367.06.771-.012 1.214-.217.447-.207.775-.484.985-.831.208-.352.221-.723.04-1.114a1.19 1.19 0 00-.469-.542 1.352 1.352 0 00-.7-.193 1.877 1.877 0 00-.819.191l-1.425.659-.832-1.799 1.425-.658c.425-.197.706-.447.842-.75a1.03 1.03 0 00.006-.903c-.155-.335-.4-.548-.734-.638-.332-.097-.7-.052-1.104.135-.408.188-.705.438-.89.748-.183.304-.211.603-.084.9l-2.65 1.225c-.266-.597-.325-1.193-.177-1.788.151-.597.469-1.151.953-1.662.488-.512 1.101-.939 1.84-1.281.808-.374 1.557-.582 2.247-.625.692-.049 1.291.063 1.798.335.511.269.899.692 1.166 1.268.242.524.273 1.042.092 1.554-.181.511-.546.985-1.095 1.422l.048.103c.42-.163.84-.225 1.261-.184.42.04.808.184 1.162.432.353.244.636.596.848 1.056.285.614.348 1.224.189 1.829-.154.604-.492 1.17-1.014 1.698-.52.523-1.186.971-1.999 1.347-.79.366-1.552.58-2.285.642-.73.057-1.384-.053-1.96-.329-.572-.278-1.018-.735-1.337-1.369zm14.27-2.97c-.631.292-1.245.443-1.841.452a2.996 2.996 0 01-1.629-.443c-.486-.307-.881-.788-1.183-1.441-.254-.55-.367-1.059-.338-1.526.029-.467.165-.895.408-1.284.243-.389.559-.744.948-1.064a9.923 9.923 0 011.291-.895c.549-.327.987-.597 1.315-.812.327-.219.545-.419.654-.6.109-.181.115-.376.018-.587l-.018-.039c-.189-.408-.464-.664-.825-.768-.357-.107-.77-.051-1.238.165-.494.229-.837.52-1.028.875-.192.35-.261.71-.204 1.08l-2.635.969a3.79 3.79 0 01.039-1.912c.173-.618.504-1.183.992-1.695.49-.519 1.131-.962 1.922-1.327a6.925 6.925 0 011.668-.537 4.544 4.544 0 011.625-.024c.521.088.993.292 1.418.612.422.316.77.768 1.042 1.357l3.089 6.678-2.604 1.204-.635-1.373-.078.036a3.085 3.085 0 01-.259 1.114 3.258 3.258 0 01-.707.992c-.315.302-.717.566-1.207.793zm-.09-2.259c.404-.187.724-.431.96-.733a2.09 2.09 0 00.424-.995 1.869 1.869 0 00-.168-1.057l-.486-1.051c-.06.096-.154.202-.283.319a7.076 7.076 0 01-.439.352c-.169.12-.339.238-.51.353l-.47.304a3.73 3.73 0 00-.74.616 1.49 1.49 0 00-.367.678c-.054.234-.021.48.098.737.173.374.441.597.803.67.364.066.757.002 1.178-.193zm8.658-6.329l.661-7.927 2.707-1.252 4.58 9.901-2.617 1.21-2.913-6.297-.639 7.94-2.727 1.262-4.579-9.902 2.623-1.213 2.904 6.278zm-1.408-11.165l1.915-.885c.357.784.358 1.548.003 2.291-.351.742-1.014 1.338-1.99 1.789-.979.453-1.865.574-2.658.361-.792-.213-1.369-.71-1.73-1.492l1.901-.88c.133.299.351.521.654.668.307.145.694.109 1.163-.107.455-.211.728-.478.818-.802a1.326 1.326 0 00-.076-.943zm15.652 1.635l.998 2.16-5.169 2.391-.999-2.16 5.17-2.391zm-6.051-1.881l4.58 9.901-2.624 1.214-4.579-9.901 2.623-1.214zm5.989-2.77l4.579 9.901-2.604 1.205-4.58-9.901 2.605-1.205zM377.199 360.6l3.664.36-1.073 10.925.144.014 8.58-10.188 3.214.316-1.706 17.371-3.672-.361 1.073-10.933-.127-.012-8.623 10.192-3.18-.313 1.706-17.371zm15.026 19.014l.265-2.868.433.042c.305.03.575-.017.81-.143.241-.13.452-.358.632-.683.181-.324.341-.763.481-1.314.14-.557.265-1.247.374-2.07l.779-5.747 9.906.973-1.279 13.028-3.444-.338 1.001-10.187-3.215-.315-.594 3.958c-.158 1.086-.383 2.012-.675 2.777-.287.765-.641 1.381-1.064 1.848a3.467 3.467 0 01-1.457.97c-.549.186-1.171.244-1.867.176l-1.086-.107zm14.439 1.419l.264-2.869.433.042c.305.03.575-.017.81-.143.242-.13.452-.358.633-.683.18-.324.34-.763.48-1.314.14-.557.265-1.247.374-2.07l.779-5.747 9.907.973-1.28 13.028-3.443-.338 1-10.187-3.215-.315-.594 3.958c-.158 1.086-.383 2.012-.675 2.777-.286.765-.641 1.381-1.064 1.848a3.46 3.46 0 01-1.457.97c-.549.186-1.171.244-1.867.176l-1.085-.106zm23.176-5.68l-.281 2.867-7.066-.694.282-2.867 7.065.694zm-3.769-5.568l-1.279 13.028-3.605-.354 1.279-13.028 3.605.354zm6.872 14.085c-1.289-.126-2.375-.524-3.257-1.193a5.8 5.8 0 01-1.936-2.605c-.403-1.067-.54-2.26-.411-3.577.129-1.318.495-2.455 1.097-3.412a5.71 5.71 0 012.403-2.145c.994-.473 2.136-.647 3.425-.52 1.295.127 2.382.519 3.259 1.177a5.649 5.649 0 011.931 2.57c.41 1.056.551 2.243.421 3.561-.129 1.317-.498 2.46-1.107 3.428a5.744 5.744 0 01-2.398 2.179c-.99.486-2.132.665-3.427.537zm.287-2.917c.673.066 1.232-.045 1.677-.332.445-.293.792-.719 1.041-1.277.25-.563.411-1.216.484-1.956.072-.741.041-1.406-.095-1.996-.136-.596-.394-1.078-.775-1.447-.38-.368-.907-.585-1.58-.652-.667-.065-1.226.046-1.677.332-.45.282-.802.698-1.056 1.25-.248.552-.409 1.204-.483 1.956-.074.747-.042 1.418.093 2.013.141.597.405 1.082.791 1.457.386.369.913.586 1.58.652zm14.323 4.352c-1.334-.131-2.454-.526-3.36-1.186a5.757 5.757 0 01-1.972-2.592c-.41-1.062-.55-2.252-.42-3.569.131-1.335.503-2.48 1.117-3.436a5.761 5.761 0 012.446-2.149c1.011-.477 2.176-.651 3.494-.522 1.136.112 2.111.416 2.924.913.814.496 1.433 1.142 1.857 1.938.424.795.612 1.698.564 2.71l-3.409-.335c-.033-.66-.236-1.208-.61-1.644-.367-.442-.882-.695-1.544-.76-.559-.055-1.064.05-1.512.314-.442.259-.808.666-1.096 1.22-.288.554-.473 1.241-.554 2.061-.081.831-.037 1.549.131 2.153.175.606.457 1.082.845 1.428.389.346.863.547 1.423.602.412.041.791-.008 1.136-.145.35-.137.648-.356.895-.657.253-.307.435-.686.548-1.137l3.41.335c-.154.99-.512 1.839-1.073 2.549-.554.705-1.276 1.228-2.166 1.569-.89.341-1.914.454-3.074.34zm8.269-9.73l.279-2.841 11.807 1.16-.279 2.841-4.198-.412-1.001 10.187-3.443-.339 1-10.186-4.165-.41zm12.517 16.448l1.76-17.914 3.562.35-.215 2.188.161.016c.193-.335.457-.669.792-1.001a3.652 3.652 0 011.278-.8c.516-.2 1.139-.265 1.869-.193.95.093 1.802.428 2.556 1.005.754.57 1.323 1.377 1.706 2.419.383 1.037.502 2.302.355 3.795-.142 1.453-.498 2.657-1.065 3.612-.562.949-1.269 1.642-2.123 2.078-.847.43-1.765.597-2.755.5-.701-.069-1.286-.243-1.755-.524a3.716 3.716 0 01-1.111-.991 4.428 4.428 0 01-.606-1.147l-.111-.011-.684 6.972-3.614-.354zm4.657-11.053c-.076.775-.035 1.461.123 2.059.158.598.425 1.078.801 1.44.376.357.855.564 1.437.621.588.058 1.102-.054 1.541-.337.439-.288.792-.71 1.058-1.266.272-.561.445-1.221.519-1.979.074-.752.034-1.424-.119-2.015-.153-.592-.417-1.069-.793-1.431-.375-.362-.86-.573-1.453-.631-.588-.058-1.101.049-1.539.32-.432.271-.784.682-1.054 1.232-.271.55-.445 1.213-.521 1.987zm14.629 8.262c-.831-.081-1.558-.298-2.18-.651a3.594 3.594 0 01-1.416-1.449c-.317-.613-.433-1.35-.348-2.209.071-.724.263-1.319.577-1.785a3.242 3.242 0 011.203-1.081 5.322 5.322 0 011.627-.525c.603-.095 1.23-.142 1.881-.141a46.441 46.441 0 001.854-.04c.47-.028.817-.103 1.041-.223.223-.121.348-.32.375-.597l.005-.051c.053-.537-.076-.97-.386-1.297-.305-.327-.766-.52-1.382-.581-.65-.064-1.182.03-1.595.28a1.996 1.996 0 00-.868.994l-3.315-.6a4.56 4.56 0 011.202-1.954c.555-.534 1.241-.917 2.057-1.151.823-.239 1.754-.307 2.795-.205a8.397 8.397 0 012.053.458 5.482 5.482 0 011.695.963c.485.408.85.906 1.095 1.495.245.584.33 1.263.254 2.038l-.863 8.787-3.427-.337.178-1.806-.102-.01a3.678 3.678 0 01-.946.994c-.38.271-.825.47-1.334.597-.509.122-1.085.151-1.73.087zm1.28-2.392c.531.052 1.011-.006 1.438-.175a2.51 2.51 0 001.044-.771c.267-.339.423-.738.468-1.196l.136-1.383a1.92 1.92 0 01-.486.158c-.198.038-.421.07-.669.097-.248.022-.495.04-.742.056l-.671.028c-.43.021-.81.083-1.14.188-.33.104-.594.264-.792.479-.198.209-.313.483-.347.822-.048.492.093.886.424 1.181.337.29.782.462 1.337.516zm8.576-7.173l.279-2.841 11.807 1.159-.279 2.842-4.198-.413-1.001 10.187-3.444-.338 1.001-10.187-4.165-.409zm18.392 12.348c-1.317-.129-2.429-.521-3.336-1.175a5.782 5.782 0 01-1.982-2.576c-.421-1.063-.566-2.262-.434-3.596.132-1.346.507-2.497 1.126-3.452a5.709 5.709 0 012.446-2.141c1.017-.471 2.184-.642 3.501-.512 1.318.129 2.427.524 3.327 1.183a5.684 5.684 0 011.99 2.576c.422 1.058.566 2.26.434 3.605-.131 1.335-.506 2.483-1.126 3.444a5.757 5.757 0 01-2.454 2.139c-1.01.466-2.174.635-3.492.505zm.292-2.797c.599.059 1.116-.062 1.551-.362.436-.305.784-.745 1.046-1.318.268-.574.439-1.239.513-1.997.074-.758.036-1.444-.115-2.058-.145-.614-.401-1.113-.769-1.497-.368-.384-.851-.606-1.45-.665-.606-.059-1.131.063-1.578.368-.441.305-.795.744-1.063 1.317-.262.574-.43 1.239-.504 1.997-.075.758-.039 1.443.106 2.057.151.614.413 1.114.786 1.499.38.38.872.599 1.477.659zm8.015 8.289l1.759-17.914 3.563.35-.215 2.188.161.016c.193-.335.457-.669.792-1.001a3.643 3.643 0 011.278-.8c.516-.2 1.139-.264 1.868-.193.95.093 1.802.428 2.556 1.005.755.571 1.324 1.377 1.707 2.42.383 1.036.502 2.301.355 3.794-.143 1.453-.498 2.657-1.066 3.612-.561.95-1.268 1.642-2.122 2.078-.847.431-1.766.597-2.755.5-.701-.069-1.287-.243-1.756-.523a3.737 3.737 0 01-1.11-.991 4.485 4.485 0 01-.607-1.148l-.11-.01-.685 6.972-3.613-.355zm4.657-11.052c-.076.774-.035 1.461.123 2.058.158.598.425 1.078.8 1.441.376.356.856.563 1.438.62.588.058 1.102-.054 1.54-.336.44-.288.792-.711 1.058-1.267.272-.561.446-1.221.52-1.978.074-.752.034-1.424-.119-2.016-.153-.592-.417-1.069-.793-1.431-.375-.362-.86-.572-1.454-.631-.588-.058-1.101.049-1.538.32-.432.272-.784.682-1.055 1.233-.271.55-.444 1.212-.52 1.987zm14.089-1.152l3.893.383c1.725.169 3.03.714 3.916 1.635.886.915 1.262 2.059 1.127 3.433-.088.894-.383 1.658-.885 2.294-.501.63-1.181 1.094-2.038 1.393-.856.292-1.859.382-3.006.27l-6.158-.605 1.279-13.028 3.452.339-1 10.186 2.706.266c.605.06 1.117-.044 1.537-.311.421-.267.657-.638.709-1.113a1.542 1.542 0 00-.473-1.288c-.358-.36-.84-.57-1.445-.63l-3.893-.382.279-2.842zm9.894 10.084l1.279-13.028 3.614.355-1.28 13.028-3.613-.355zM8.849 456.319l-1.225-10.108 6.707-.813.214 1.762-4.57.554.239 1.974 1.643-.199c.8-.097 1.505-.051 2.116.139.613.186 1.106.495 1.48.927.372.433.597.968.674 1.606.077.635-.012 1.215-.27 1.741-.257.522-.66.954-1.21 1.298-.545.343-1.218.563-2.018.66l-3.78.459zm1.929-1.977l1.643-.199c.382-.046.696-.155.943-.325.246-.173.422-.383.53-.63a1.5 1.5 0 00.114-.79 1.327 1.327 0 00-.582-.961c-.337-.243-.792-.33-1.364-.26l-1.644.199.36 2.966zm7.429 3.727l-1.264-10.424 2.073-.251.155 1.273.094-.011c.067-.215.175-.439.324-.67.152-.236.36-.441.626-.617.269-.18.616-.295 1.04-.346a2.878 2.878 0 011.583.248c.502.23.927.618 1.277 1.163.35.542.577 1.247.683 2.116.102.845.052 1.576-.15 2.191-.2.612-.515 1.096-.946 1.452-.429.352-.93.563-1.506.633-.408.05-.764.024-1.066-.076a2.177 2.177 0 01-.758-.424 2.596 2.596 0 01-.49-.577l-.064.008.491 4.057-2.102.255zm1.254-6.883c.055.451.165.837.33 1.157.166.321.379.56.639.719.259.156.558.213.897.172a1.37 1.37 0 00.834-.387 1.76 1.76 0 00.443-.855c.084-.354.099-.751.045-1.192a3.376 3.376 0 00-.322-1.133 1.73 1.73 0 00-.633-.714c-.26-.159-.562-.218-.907-.176-.343.042-.621.167-.836.377-.212.209-.36.487-.445.835-.084.347-.1.747-.045 1.197zm10.67 2.704c-.78.094-1.471.018-2.072-.23a3.272 3.272 0 01-1.457-1.196c-.374-.549-.609-1.223-.706-2.023-.094-.779-.026-1.482.205-2.108a3.387 3.387 0 011.112-1.532c.513-.396 1.14-.639 1.884-.729a3.98 3.98 0 011.427.073c.453.105.86.298 1.221.578.365.279.667.65.906 1.112.24.458.398 1.01.476 1.655l.07.577-6.4.776-.159-1.303 4.422-.536a1.62 1.62 0 00-.294-.78 1.428 1.428 0 00-.615-.482 1.575 1.575 0 00-.829-.105 1.633 1.633 0 00-.822.325 1.578 1.578 0 00-.501.657 1.67 1.67 0 00-.114.84l.15 1.239c.046.375.154.691.326.947.174.256.399.443.674.559.274.117.587.155.94.112a1.99 1.99 0 00.63-.177 1.292 1.292 0 00.72-.878l1.96-.107a2.673 2.673 0 01-.46 1.297c-.26.382-.62.7-1.076.952-.454.249-.994.411-1.619.487zm9.548-6.005l.2 1.653-3.958.48-.2-1.654 3.958-.479zm-3.625-2.556l.918 7.581-2.008.244-.919-7.581 2.009-.244zm4.585-.555l.918 7.58-1.993.242-.92-7.581 1.995-.241zm2.227 9.675l-.472-3.889.583-.07c.155-.126.27-.31.343-.553a3.89 3.89 0 00.158-.845c.032-.321.043-.665.036-1.031a39.86 39.86 0 00-.03-1.118l-.104-2.502 5.814-.704.717 5.912 1.175-.142.471 3.889-2.004.243-.269-2.221-4.634.562.269 2.221-2.053.248zm2.203-4.213l2.858-.346-.52-4.294-2.044.248.025.868c.043.816.045 1.514.009 2.092-.038.576-.147 1.053-.328 1.432zm14.104.134c-.777.094-1.465.01-2.064-.251a3.365 3.365 0 01-1.45-1.226c-.368-.553-.598-1.213-.691-1.98-.094-.776-.027-1.476.201-2.098a3.366 3.366 0 011.122-1.533c.516-.399 1.157-.646 1.923-.739.662-.08 1.255-.03 1.781.15s.96.47 1.303.869c.342.399.563.89.664 1.472l-1.984.24c-.102-.371-.287-.658-.555-.859-.265-.205-.59-.284-.976-.237a1.41 1.41 0 00-.821.37c-.22.203-.376.481-.47.833-.094.352-.112.766-.055 1.243.06.484.175.887.347 1.21.176.323.397.558.662.706.265.149.56.203.886.164.24-.03.45-.105.629-.227a1.26 1.26 0 00.426-.487c.105-.207.162-.446.169-.717l1.984-.24a3.13 3.13 0 01-.288 1.587 2.876 2.876 0 01-1.036 1.167c-.464.307-1.033.501-1.707.583zm12.645-6.381l.2 1.654-3.957.48-.2-1.654 3.957-.48zm-3.624-2.555l.918 7.581-2.008.243-.92-7.581 2.01-.243zm4.585-.556l.918 7.581-1.994.242-.918-7.581 1.994-.242zm3.92 10.102a4.258 4.258 0 01-.757.027 2.789 2.789 0 01-.591-.084l.283-1.627c.256.046.483.06.681.043a.855.855 0 00.502-.201c.136-.117.236-.299.3-.547l.084-.336-3.665-7.468 2.211-.268 2.245 5.377.078-.01.91-5.759 2.226-.27-1.928 8.757a3.552 3.552 0 01-.449 1.136 2.385 2.385 0 01-.827.817c-.349.212-.782.35-1.302.413zm5.447-3.545l-.212-1.667.251-.03a.819.819 0 00.444-.184.968.968 0 00.273-.469 3.27 3.27 0 00.108-.809 10.98 10.98 0 00-.049-1.226l-.283-3.371 5.765-.699.918 7.581-2.004.243-.718-5.928-1.87.227.162 2.329c.047.639.036 1.194-.034 1.667-.066.472-.19.867-.372 1.187a2.023 2.023 0 01-.707.736 2.573 2.573 0 01-1.04.337l-.632.076zm13.287-1.61l-.719-5.932-1.421.172c-.385.046-.667.171-.846.373a.807.807 0 00-.22.667.796.796 0 00.362.593c.218.143.518.192.9.146l2.141-.26.173 1.422-2.142.259c-.648.079-1.222.048-1.72-.092-.497-.14-.895-.37-1.195-.691a2.05 2.05 0 01-.53-1.193 2.218 2.218 0 01.223-1.344c.21-.406.543-.742.995-1.007.454-.269 1.008-.443 1.659-.522l3.38-.409.92 7.58-1.96.238zm-4.817.584l1.63-4.204 2.008-.243-1.624 4.203-2.014.244zm13.299-4.427l2.147-5.137 2.073-.252.919 7.581-2.004.243-.584-4.822-2.135 5.152-2.088.253-.919-7.581 2.009-.244.582 4.807zm9.718 3.891l-.471-3.889.582-.071c.155-.126.27-.31.344-.552a3.95 3.95 0 00.158-.846c.031-.321.043-.664.035-1.031-.005-.37-.015-.742-.03-1.118l-.103-2.501 5.814-.705.716 5.913 1.175-.143.471 3.889-2.003.243-.27-2.221-4.634.562.269 2.221-2.053.249zm2.204-4.214l2.857-.346-.52-4.294-2.043.248.025.868c.042.816.045 1.514.008 2.093-.037.575-.146 1.052-.327 1.431zm10.887.524c-.767.093-1.45.01-2.049-.248a3.364 3.364 0 01-1.454-1.216c-.374-.552-.608-1.216-.702-1.993-.095-.783-.027-1.486.205-2.108a3.32 3.32 0 011.122-1.528c.519-.397 1.162-.642 1.929-.735.767-.093 1.448-.008 2.044.253a3.313 3.313 0 011.459 1.216c.374.549.608 1.215.703 1.998.094.776.026 1.477-.206 2.103a3.36 3.36 0 01-1.127 1.529c-.516.393-1.158.636-1.924.729zm-.188-1.63c.349-.042.628-.176.838-.402.209-.229.352-.523.429-.883.079-.36.093-.761.039-1.202a3.56 3.56 0 00-.325-1.157 1.856 1.856 0 00-.628-.756c-.258-.172-.561-.237-.91-.195-.352.043-.636.179-.852.409a1.86 1.86 0 00-.438.884c-.077.36-.089.761-.035 1.201.053.441.16.827.32 1.158.164.331.377.583.638.755.264.168.572.231.924.188zm5.612 3.707l-1.263-10.424 2.073-.251.154 1.273.094-.011a2.81 2.81 0 01.325-.67c.151-.236.36-.441.626-.617.269-.18.615-.295 1.04-.347a2.868 2.868 0 011.582.249c.502.23.928.617 1.278 1.163.349.541.577 1.247.682 2.115.103.846.053 1.577-.15 2.192-.2.612-.515 1.096-.946 1.452-.428.352-.93.563-1.506.633-.408.049-.763.024-1.065-.076a2.176 2.176 0 01-.758-.424 2.624 2.624 0 01-.491-.577l-.064.008.492 4.057-2.103.255zm1.255-6.883c.054.451.164.837.33 1.157.166.32.379.56.638.719.259.155.558.213.897.172.343-.042.621-.171.835-.387.214-.22.361-.504.442-.855a3.4 3.4 0 00.046-1.192 3.375 3.375 0 00-.323-1.133 1.729 1.729 0 00-.632-.715c-.26-.159-.562-.217-.908-.175-.342.041-.621.167-.835.377-.212.209-.36.487-.445.835-.085.347-.1.746-.045 1.197zm9.375 2.855a3.177 3.177 0 01-1.324-.095 2.087 2.087 0 01-.989-.646c-.258-.309-.417-.714-.478-1.214-.051-.421-.017-.784.103-1.089a1.9 1.9 0 01.548-.768c.246-.207.533-.375.861-.505.331-.13.682-.236 1.053-.318.435-.099.785-.185 1.05-.257.265-.076.453-.162.565-.259a.413.413 0 00.138-.387l-.003-.03c-.038-.313-.166-.542-.384-.69-.215-.147-.502-.199-.861-.156-.378.046-.669.166-.872.361a1.167 1.167 0 00-.369.676l-1.964.078c.043-.473.189-.894.438-1.265.248-.374.59-.679 1.026-.916.438-.24.96-.397 1.565-.47.421-.051.83-.05 1.227.002.401.051.763.163 1.088.334.327.17.598.408.812.712.214.302.348.678.402 1.129l.62 5.113-1.994.241-.127-1.051-.06.007c-.093.252-.23.481-.412.686a2.282 2.282 0 01-.685.509 3.059 3.059 0 01-.974.268zm.426-1.524c.31-.037.575-.131.797-.282.222-.153.388-.344.497-.571.11-.227.148-.473.116-.74l-.098-.804c-.06.05-.146.101-.257.151a5.497 5.497 0 01-.784.265l-.378.101c-.243.066-.451.15-.626.251a1.04 1.04 0 00-.39.373.788.788 0 00-.094.512c.035.287.165.493.391.619.228.123.504.164.826.125zm10.504-10.462l.807 1.294a2.168 2.168 0 01-.662.481c-.25.114-.555.206-.913.276-.356.07-.791.141-1.307.213-.585.078-1.05.229-1.397.455a1.813 1.813 0 00-.735.956c-.145.408-.209.926-.193 1.555l.074-.009c.171-.491.447-.888.828-1.192.383-.303.88-.492 1.488-.566.645-.078 1.227-.005 1.745.22.521.223.949.584 1.283 1.081.334.497.546 1.116.635 1.856.094.77.023 1.458-.21 2.064a3.232 3.232 0 01-1.119 1.473c-.515.376-1.155.61-1.918.703-.767.093-1.447.012-2.043-.243-.591-.256-1.077-.68-1.456-1.271-.375-.592-.619-1.348-.73-2.266l-.075-.621c-.222-1.827-.03-3.224.573-4.192.604-.967 1.595-1.542 2.972-1.722a34.94 34.94 0 011.016-.128c.303-.033.566-.08.789-.141.226-.06.409-.153.548-.276zm-1.781 9.23c.322-.039.588-.157.798-.352.214-.196.364-.458.451-.786.09-.328.109-.709.057-1.144-.053-.431-.161-.788-.326-1.072a1.504 1.504 0 00-.621-.626 1.467 1.467 0 00-.868-.135 1.55 1.55 0 00-.64.213 1.345 1.345 0 00-.451.455 1.903 1.903 0 00-.239.675 3.124 3.124 0 00-.004.872c.078.648.28 1.143.605 1.484.328.337.741.476 1.238.416zm8.714.596c-.766.093-1.449.011-2.048-.247a3.365 3.365 0 01-1.454-1.216c-.374-.553-.608-1.217-.703-1.993-.094-.784-.026-1.486.206-2.109a3.325 3.325 0 011.122-1.528c.519-.397 1.162-.641 1.929-.734.766-.093 1.448-.009 2.044.253a3.323 3.323 0 011.459 1.215c.374.549.608 1.215.703 1.998.094.777.025 1.478-.206 2.103a3.355 3.355 0 01-1.127 1.529c-.516.393-1.158.636-1.925.729zm-.187-1.63c.349-.042.628-.176.838-.402.209-.229.352-.523.428-.883.08-.36.093-.761.04-1.202a3.542 3.542 0 00-.326-1.157c-.16-.331-.369-.583-.627-.755-.258-.173-.561-.238-.91-.196-.352.043-.636.179-.852.409-.213.23-.359.524-.439.885-.076.36-.088.76-.034 1.201.053.441.16.827.32 1.158.164.331.376.582.638.754.264.168.572.231.924.188zm3.815-4.974l-.2-1.654 6.87-.832.2 1.653-2.443.296.719 5.928-2.004.243-.718-5.928-2.424.294zm8.863 4.94l-.918-7.581 2.102-.255.357 2.942.592-.072 1.706-3.191 2.468-.299-2.224 4.085 3.173 3.492-2.498.303-2.196-2.464-.785.096.326 2.689-2.103.255zm10.323-1.106a3.177 3.177 0 01-1.324-.095 2.087 2.087 0 01-.989-.646c-.258-.309-.417-.714-.478-1.214-.051-.421-.017-.784.103-1.089a1.9 1.9 0 01.548-.768c.246-.206.532-.375.861-.505.331-.13.682-.236 1.053-.318.435-.099.785-.185 1.05-.257.265-.076.453-.162.565-.259a.413.413 0 00.138-.387l-.003-.03c-.038-.312-.166-.542-.384-.689-.215-.148-.502-.2-.861-.157-.378.046-.669.167-.872.362a1.161 1.161 0 00-.369.675l-1.964.078c.043-.473.189-.894.438-1.265.248-.374.59-.679 1.026-.916.438-.24.96-.396 1.565-.47.421-.051.83-.05 1.227.002.401.051.763.163 1.087.334.328.17.599.408.813.713.213.301.348.677.402 1.128l.62 5.113-1.994.241-.127-1.051-.06.007c-.093.252-.23.481-.412.686a2.282 2.282 0 01-.685.509 3.059 3.059 0 01-.974.268zm.426-1.524c.31-.037.575-.131.797-.282.222-.153.388-.344.497-.571.11-.226.148-.473.116-.74l-.098-.804c-.06.051-.146.101-.257.151a5 5 0 01-.368.14c-.139.043-.277.085-.416.125l-.378.101c-.243.066-.451.15-.626.251a1.04 1.04 0 00-.39.373.781.781 0 00-.094.512c.035.287.165.493.391.619.228.123.504.164.826.125zm62.802 103.575l-.297-2.453.405-.085c.521-.106.922-.358 1.203-.754.281-.401.453-1.007.517-1.816.068-.814.045-1.894-.071-3.239l-.538-6.452 9.8-1.188 1.75 14.44-2.968.359-1.454-11.993-3.997.485.383 5.054c.121 1.626.088 2.971-.098 4.033-.181 1.062-.578 1.878-1.191 2.448-.608.57-1.493.925-2.654 1.066l-.79.095zm20.149-2.227c-1.096.133-2.071.015-2.926-.354a4.799 4.799 0 01-2.078-1.737c-.535-.789-.869-1.738-1.003-2.847-.136-1.119-.038-2.123.293-3.012a4.75 4.75 0 011.602-2.183c.743-.567 1.661-.917 2.756-1.049 1.096-.133 2.069-.013 2.92.361a4.739 4.739 0 012.085 1.736c.534.785.869 1.736 1.004 2.855.135 1.109.037 2.111-.294 3.004a4.782 4.782 0 01-1.61 2.184c-.738.562-1.654.909-2.749 1.042zm-.268-2.328c.498-.061.897-.252 1.197-.575.298-.327.503-.748.612-1.262.114-.514.133-1.086.057-1.716-.077-.63-.232-1.181-.465-1.654-.229-.473-.528-.833-.897-1.079-.368-.246-.801-.339-1.3-.279-.503.061-.908.256-1.217.584-.303.328-.512.749-.626 1.264-.11.514-.126 1.086-.05 1.716.076.63.229 1.181.458 1.654.234.473.537.832.91 1.077.378.241.818.331 1.321.27zm13.63-10.495l.286 2.362-4.498.545 1.026 8.468-2.919.354-1.312-10.83 7.417-.899zm7.675 10.273c-1.095.133-2.07.015-2.926-.353a4.818 4.818 0 01-2.078-1.737c-.534-.789-.868-1.738-1.003-2.848-.136-1.118-.038-2.122.293-3.011a4.762 4.762 0 011.603-2.184c.742-.566 1.661-.916 2.756-1.049 1.095-.133 2.068-.012 2.92.362.855.368 1.55.947 2.085 1.736.533.784.868 1.735 1.004 2.854.134 1.11.036 2.111-.294 3.005a4.8 4.8 0 01-1.61 2.184c-.738.561-1.655.909-2.75 1.041zm-.268-2.328c.499-.06.897-.252 1.197-.574.299-.328.503-.748.613-1.262.114-.515.133-1.087.056-1.717-.076-.63-.231-1.181-.465-1.653-.229-.473-.528-.833-.896-1.079-.369-.247-.802-.34-1.3-.279-.503.061-.909.255-1.217.584-.304.327-.513.749-.627 1.263-.109.514-.126 1.086-.05 1.716.077.63.229 1.181.459 1.654.233.473.537.832.91 1.078.377.24.817.33 1.32.269zm5.451-7.107l-.286-2.362 9.814-1.189.286 2.362-3.49.423 1.027 8.468-2.863.347-1.026-8.468-3.462.419zm15.051 2.748l3.067-7.34 2.961-.359 1.312 10.83-2.862.347-.835-6.889-3.05 7.36-2.983.361-1.312-10.83 2.87-.348.832 6.868zm9.748 2.839l-1.312-10.83 9.469-1.147 1.312 10.829-2.869.348-1.027-8.468-3.765.457 1.027 8.468-2.835.343zm18.851-6.305l3.067-7.34 2.961-.359 1.313 10.83-2.863.347-.835-6.889-3.05 7.36-2.982.361-1.313-10.83 2.87-.348.832 6.868zm19.972 5.334l-2.196-18.12 2.997-.363 2.196 18.12-2.997.363zm-.42-3.469c-.832.101-1.608.059-2.326-.125a5.286 5.286 0 01-1.916-.934 5.234 5.234 0 01-1.371-1.63 6.102 6.102 0 01-.683-2.214c-.101-.832-.057-1.605.133-2.319a5.14 5.14 0 012.58-3.275c.653-.356 1.395-.584 2.227-.685l.557-.067 1.356 11.182-.557.067zm-.284-2.34l.331-.041-.787-6.5-.332.04a2.267 2.267 0 00-1.048.384 2.389 2.389 0 00-.712.795 3.2 3.2 0 00-.369 1.089c-.06.408-.063.84-.007 1.296.073.602.238 1.137.495 1.607.257.465.593.82 1.009 1.065.416.241.889.329 1.42.265zm3.28 1.977l-.557.068-1.355-11.183.557-.067c.832-.101 1.608-.057 2.327.133a5.145 5.145 0 013.287 2.563c.355.649.583 1.389.684 2.221.1.823.055 1.594-.135 2.313a5.242 5.242 0 01-.942 1.91 5.263 5.263 0 01-1.637 1.364c-.654.352-1.397.577-2.229.678zm-.283-2.341a2.306 2.306 0 001.048-.377c.295-.207.532-.472.713-.795a3.28 3.28 0 00.368-1.089c.065-.408.07-.838.016-1.289a4.297 4.297 0 00-.503-1.607c-.257-.469-.591-.827-1.002-1.073-.412-.246-.888-.336-1.428-.27l-.332.04.788 6.501.332-.041zm10.232-3.1l3.067-7.34 2.961-.359 1.312 10.83-2.862.347-.835-6.888-3.05 7.359-2.983.362-1.312-10.83 2.869-.348.833 6.867zm10.24 6.901l-1.804-14.891 2.961-.359.22 1.819.134-.016a4.01 4.01 0 01.464-.958c.217-.336.515-.63.895-.881.383-.256.879-.421 1.485-.495a4.096 4.096 0 012.261.356c.717.328 1.325.881 1.825 1.66.499.774.824 1.782.974 3.023.147 1.208.075 2.251-.214 3.131-.285.874-.735 1.565-1.351 2.074a4.091 4.091 0 01-2.151.904c-.583.071-1.091.034-1.523-.109a3.094 3.094 0 01-1.082-.605 3.747 3.747 0 01-.701-.824l-.091.011.702 5.796-3.004.364zm1.792-9.833c.078.644.235 1.195.472 1.653.237.458.541.8.912 1.027.37.222.797.304 1.281.245.489-.059.887-.243 1.193-.552.305-.314.516-.721.631-1.221.12-.506.142-1.074.066-1.704-.076-.625-.23-1.164-.461-1.618-.232-.454-.533-.794-.904-1.021-.371-.227-.803-.31-1.296-.25-.489.059-.887.238-1.194.538-.303.299-.514.696-.635 1.193-.122.496-.143 1.066-.065 1.71zm15.199 3.867c-1.109.135-2.092.015-2.948-.358a4.79 4.79 0 01-2.072-1.752c-.525-.79-.854-1.733-.987-2.828-.134-1.109-.038-2.108.288-2.997a4.801 4.801 0 011.602-2.19c.737-.571 1.653-.923 2.748-1.055.945-.115 1.793-.044 2.544.214.751.257 1.372.67 1.86 1.241.489.57.806 1.271.949 2.103l-2.834.343c-.146-.531-.41-.94-.793-1.227-.379-.293-.843-.406-1.393-.34a2.035 2.035 0 00-1.174.529c-.313.291-.536.687-.671 1.19-.135.503-.161 1.095-.078 1.777.084.691.249 1.267.496 1.728.251.461.566.797.945 1.009.378.212.8.289 1.266.233.343-.042.642-.149.898-.324.26-.174.463-.406.609-.696.15-.295.231-.636.241-1.023l2.834-.344c.054.833-.084 1.589-.412 2.268a4.118 4.118 0 01-1.479 1.667c-.662.438-1.475.715-2.439.832zm4.97-9.409l-.287-2.362 9.815-1.189.286 2.362-3.49.423 1.026 8.468-2.862.346-1.026-8.467-3.462.419zm15.051 2.748l3.066-7.34 2.962-.359 1.312 10.83-2.862.347-.835-6.889-3.05 7.359-2.983.362-1.312-10.83 2.869-.348.833 6.868zm9.113 2.916l-.302-2.382.359-.043a1.17 1.17 0 00.634-.263c.172-.15.303-.373.391-.67.088-.297.139-.682.153-1.156a15.98 15.98 0 00-.069-1.752l-.405-4.815 8.235-.998 1.313 10.829-2.863.347-1.026-8.468-2.672.324.231 3.328c.068.912.052 1.706-.048 2.381-.094.674-.271 1.239-.531 1.695-.26.451-.597.802-1.01 1.053-.413.25-.909.41-1.487.48l-.903.11zm13.61-9.262l3.237-.392c1.433-.174 2.594.034 3.481.623.886.584 1.398 1.447 1.537 2.589.09.743-.012 1.418-.306 2.026-.294.603-.763 1.104-1.406 1.501-.644.393-1.443.647-2.397.763l-5.119.62-1.312-10.83 2.869-.347 1.026 8.467 2.25-.272c.503-.061.901-.238 1.194-.531.294-.293.419-.638.376-1.033a1.285 1.285 0 00-.617-.963c-.357-.228-.787-.312-1.29-.251l-3.236.392-.287-2.362zM143.635 615.015l10.346 20.847-4.357 2.162-8.567-17.263-8.429 4.182 8.568 17.264-4.357 2.162-10.345-20.847 17.141-8.507zm21.676 15.605c-1.581.784-3.115 1.127-4.602 1.028a7.706 7.706 0 01-4.061-1.511c-1.227-.905-2.238-2.159-3.033-3.76-.801-1.615-1.19-3.182-1.165-4.699.022-1.525.439-2.908 1.253-4.149.817-1.251 2.016-2.269 3.597-3.053 1.581-.785 3.113-1.123 4.597-1.013 1.487.099 2.844.601 4.071 1.506 1.224.898 2.237 2.155 3.038 3.77.795 1.602 1.181 3.165 1.16 4.689a7.675 7.675 0 01-1.263 4.153c-.813 1.241-2.01 2.254-3.592 3.039zm-1.646-3.369c.719-.357 1.219-.859 1.498-1.505.277-.653.36-1.397.251-2.231-.103-.837-.379-1.71-.831-2.619-.451-.91-.979-1.658-1.584-2.246-.598-.591-1.24-.974-1.927-1.149-.688-.175-1.391-.084-2.11.273-.726.36-1.234.87-1.524 1.53-.283.656-.374 1.403-.271 2.24.109.834.389 1.706.841 2.615.451.909.975 1.66 1.573 2.251.605.588 1.254.968 1.948 1.139.698.161 1.41.062 2.136-.298zm18.644-5.447l-7.759-15.635 6.667-3.309c1.928-.956 3.633-1.346 5.116-1.169 1.484.177 2.56.941 3.231 2.292.421.848.455 1.71.104 2.587-.352.876-1.039 1.691-2.061 2.443.97-.397 1.874-.579 2.711-.546.84.023 1.573.23 2.198.622a3.856 3.856 0 011.459 1.61c.441.889.583 1.77.424 2.644-.152.87-.598 1.701-1.339 2.491-.734.787-1.753 1.504-3.055 2.151l-7.696 3.819zm2.43-5.253l3.654-1.813c.604-.3 1.005-.677 1.203-1.13.201-.463.177-.946-.072-1.448-.276-.557-.666-.909-1.171-1.056-.497-.151-1.048-.076-1.652.224l-3.654 1.813 1.692 3.41zm-2.955-5.955l2.717-1.348c.435-.216.774-.46 1.019-.734.248-.284.395-.585.44-.903a1.579 1.579 0 00-.165-.972c-.239-.481-.619-.762-1.141-.841-.521-.08-1.118.047-1.79.38l-2.626 1.304 1.546 3.114zm24.257-.189c-1.602.795-3.148 1.139-4.638 1.033a7.68 7.68 0 01-4.061-1.536c-1.214-.912-2.213-2.158-2.998-3.74-.794-1.601-1.183-3.159-1.165-4.673.022-1.525.438-2.911 1.248-4.159.806-1.254 2-2.274 3.582-3.059 1.364-.677 2.681-1.022 3.951-1.035 1.271-.013 2.427.28 3.469.88 1.041.599 1.893 1.488 2.553 2.665l-4.092 2.031c-.503-.723-1.12-1.199-1.851-1.429-.727-.239-1.488-.162-2.282.233-.672.333-1.168.807-1.488 1.423-.317.606-.443 1.323-.378 2.154.066.83.342 1.737.831 2.721.495.998 1.051 1.779 1.67 2.343.625.561 1.279.9 1.963 1.017.684.117 1.362.009 2.034-.324a3.192 3.192 0 001.182-.967c.299-.403.482-.861.548-1.376.069-.525.008-1.082-.183-1.672l4.092-2.031c.525 1.228.721 2.441.589 3.64-.129 1.189-.576 2.291-1.342 3.305-.765 1.014-1.843 1.866-3.234 2.556zm16.884-8.379c-1.608.798-3.154 1.16-4.638 1.084a7.47 7.47 0 01-4.051-1.466c-1.224-.898-2.245-2.171-3.063-3.82-.798-1.609-1.187-3.175-1.165-4.7.021-1.524.43-2.907 1.227-4.148.803-1.244 1.972-2.247 3.505-3.008 1.032-.512 2.075-.822 3.129-.931a7.13 7.13 0 013.073.314c.999.325 1.932.894 2.8 1.706.865.806 1.628 1.873 2.288 3.203l.591 1.191-13.202 6.552-1.334-2.687 9.121-4.526c-.31-.625-.72-1.11-1.231-1.457a3.265 3.265 0 00-1.691-.57c-.613-.042-1.235.093-1.866.407-.658.326-1.166.769-1.523 1.326a3.583 3.583 0 00-.58 1.798 3.816 3.816 0 00.396 1.897l1.268 2.554c.384.774.858 1.372 1.422 1.794a3.494 3.494 0 001.879.691c.68.043 1.384-.116 2.11-.476a4.58 4.58 0 001.222-.86c.333-.335.575-.709.725-1.121.151-.413.203-.854.157-1.321l4.142-1.726a6.112 6.112 0 010 3.146c-.27 1.022-.802 1.979-1.594 2.871-.788.882-1.827 1.643-3.117 2.283zm11.159-13.048l.708-12.707 4.276-2.122 7.759 15.635-4.133 2.051-4.935-9.945-.674 12.728-4.305 2.137-7.759-15.635 4.142-2.056 4.921 9.914zm-2.742-17.795l3.023-1.5c.606 1.238.641 2.46.106 3.664-.529 1.202-1.563 2.184-3.104 2.949-1.547.768-2.959.999-4.235.694-1.277-.306-2.221-1.076-2.834-2.311l3.003-1.49c.225.471.583.818 1.074 1.04.497.218 1.116.144 1.856-.223.719-.357 1.144-.797 1.274-1.318a2.128 2.128 0 00-.163-1.505zm-87.821 90.356l-1.692-3.41 14.169-7.032 1.693 3.41-5.039 2.501 6.067 12.225-4.133 2.051-6.067-12.226-4.998 2.481zm29.582.936c-1.608.798-3.154 1.159-4.638 1.084-1.48-.086-2.83-.575-4.051-1.466-1.223-.898-2.245-2.172-3.063-3.821-.798-1.608-1.186-3.174-1.165-4.699.022-1.524.431-2.907 1.227-4.148.803-1.245 1.972-2.247 3.506-3.008 1.031-.512 2.074-.823 3.128-.931a7.13 7.13 0 013.073.314c.999.325 1.932.893 2.801 1.706.865.805 1.627 1.873 2.287 3.203l.591 1.191-13.202 6.552-1.334-2.687 9.121-4.527c-.31-.624-.72-1.11-1.231-1.457a3.252 3.252 0 00-1.69-.569c-.614-.042-1.236.093-1.867.406-.658.327-1.166.769-1.523 1.327a3.592 3.592 0 00-.58 1.797 3.814 3.814 0 00.396 1.897l1.268 2.555c.384.774.858 1.371 1.423 1.793a3.49 3.49 0 001.878.692c.681.043 1.384-.116 2.11-.477a4.557 4.557 0 001.222-.86c.334-.334.575-.708.725-1.121.151-.413.203-.853.157-1.321l4.142-1.725a6.119 6.119 0 01.001 3.145c-.271 1.023-.803 1.98-1.595 2.872-.788.882-1.827 1.643-3.117 2.283zm12.765.592l-10.669-21.498 4.275-2.122 1.303 2.626.194-.096a6.402 6.402 0 01.188-1.692c.147-.622.44-1.225.879-1.806.442-.592 1.101-1.105 1.977-1.539a6.558 6.558 0 013.6-.67c1.256.112 2.469.622 3.639 1.53 1.166.901 2.194 2.248 3.083 4.039.865 1.744 1.314 3.357 1.347 4.837.036 1.471-.274 2.754-.931 3.85-.654 1.085-1.575 1.923-2.762 2.512-.842.418-1.627.634-2.355.649-.722.011-1.374-.101-1.956-.337a5.92 5.92 0 01-1.496-.868l-.133.066 4.153 8.367-4.336 2.152zm-2.545-15.787c.461.929.993 1.676 1.594 2.241.601.564 1.242.918 1.923 1.062.677.138 1.365.033 2.064-.314.706-.35 1.207-.84 1.504-1.469.293-.636.394-1.362.301-2.179-.089-.827-.359-1.695-.81-2.605-.448-.902-.968-1.634-1.559-2.195-.591-.56-1.227-.913-1.908-1.057-.68-.145-1.377-.04-2.089.314-.706.35-1.211.833-1.514 1.449-.297.612-.404 1.325-.321 2.138.082.813.354 1.685.815 2.615zm20.684 6.785l-10.669-21.498 4.275-2.122 1.303 2.626.194-.096a6.39 6.39 0 01.188-1.691c.147-.623.441-1.226.879-1.807.443-.592 1.101-1.105 1.977-1.539a6.558 6.558 0 013.6-.67c1.256.112 2.469.622 3.639 1.53 1.166.902 2.194 2.248 3.083 4.039.865 1.745 1.315 3.357 1.347 4.838.037 1.47-.274 2.753-.931 3.849-.654 1.085-1.574 1.923-2.762 2.512-.841.418-1.626.634-2.355.649-.722.011-1.373-.101-1.955-.336a5.942 5.942 0 01-1.497-.869l-.132.066 4.152 8.367-4.336 2.152zm-2.545-15.787c.462.93.993 1.676 1.594 2.241.602.564 1.243.918 1.923 1.062.677.138 1.365.033 2.064-.313.706-.351 1.207-.84 1.504-1.47.293-.636.394-1.362.301-2.179-.089-.827-.359-1.695-.81-2.604-.448-.903-.968-1.635-1.559-2.195-.591-.561-1.227-.914-1.907-1.058-.681-.144-1.378-.04-2.09.314-.706.35-1.21.833-1.514 1.449-.296.612-.404 1.325-.321 2.138.082.814.354 1.685.815 2.615zm19.078-6.855l.709-12.708 4.275-2.121 7.759 15.635-4.132 2.051-4.936-9.945-.673 12.728-4.306 2.137-7.759-15.635 4.143-2.056 4.92 9.914zm8.583-12.365l-1.693-3.41 14.17-7.032 1.692 3.41-5.039 2.501 6.067 12.225-4.133 2.051-6.067-12.225-4.997 2.48zm29.52.966c-1.581.785-3.115 1.128-4.602 1.028a7.697 7.697 0 01-4.061-1.511c-1.227-.905-2.238-2.158-3.033-3.76-.801-1.615-1.19-3.181-1.165-4.699.022-1.524.439-2.907 1.253-4.148.817-1.251 2.016-2.269 3.597-3.054 1.581-.785 3.113-1.122 4.597-1.013 1.487.1 2.844.602 4.071 1.507 1.224.898 2.237 2.154 3.038 3.769.795 1.602 1.181 3.165 1.16 4.689a7.678 7.678 0 01-1.263 4.154c-.813 1.241-2.01 2.254-3.592 3.038zm-1.646-3.369c.719-.357 1.219-.859 1.498-1.505.277-.653.36-1.396.251-2.23-.102-.837-.379-1.711-.831-2.62-.451-.909-.979-1.658-1.584-2.246-.597-.591-1.24-.974-1.927-1.149-.688-.175-1.391-.084-2.11.273-.726.361-1.234.871-1.524 1.53-.283.657-.374 1.404-.271 2.241.109.834.389 1.705.841 2.614.451.91.976 1.66 1.573 2.251.605.588 1.254.968 1.949 1.14.697.161 1.409.061 2.135-.299zm14.92 3.709l-10.669-21.499 4.275-2.121 1.303 2.626.194-.096a6.402 6.402 0 01.188-1.692c.147-.623.44-1.225.879-1.806.442-.592 1.101-1.105 1.977-1.539a6.558 6.558 0 013.6-.67c1.256.112 2.469.622 3.639 1.53 1.166.901 2.194 2.248 3.083 4.039.865 1.744 1.314 3.357 1.347 4.837.037 1.471-.274 2.754-.931 3.85-.654 1.085-1.574 1.923-2.762 2.512-.842.418-1.626.634-2.355.648-.722.012-1.373-.1-1.955-.336a5.91 5.91 0 01-1.497-.868l-.132.066 4.152 8.367-4.336 2.152zm-2.545-15.787c.461.929.993 1.676 1.594 2.24.602.565 1.243.919 1.923 1.063.677.138 1.365.033 2.064-.314.706-.35 1.207-.84 1.504-1.469.293-.636.394-1.363.301-2.179-.089-.827-.359-1.695-.81-2.605-.448-.902-.968-1.634-1.559-2.195-.591-.561-1.227-.913-1.908-1.057-.68-.145-1.377-.04-2.089.313-.706.351-1.211.834-1.514 1.449-.296.613-.404 1.326-.321 2.139.082.813.354 1.685.815 2.615zm19.078-6.855l.709-12.708 4.275-2.121 7.759 15.635-4.132 2.051-4.936-9.945-.673 12.728-4.306 2.137-7.759-15.635 4.143-2.056 4.92 9.914zm17.523-8.696l.709-12.708 4.275-2.122 7.76 15.635-4.133 2.051-4.935-9.945-.674 12.729-4.306 2.137-7.759-15.636 4.143-2.056 4.92 9.915zm22.935-4.252l-10.345-20.847 8.225-4.082c1.581-.785 3.078-1.151 4.49-1.099 1.41.044 2.67.455 3.783 1.231 1.115.765 2.017 1.84 2.704 3.225.687 1.384.994 2.754.923 4.109-.072 1.355-.528 2.608-1.368 3.761-.834 1.15-2.051 2.122-3.653 2.917l-5.242 2.601-1.753-3.532 4.53-2.248c.848-.421 1.474-.914 1.879-1.478.409-.575.619-1.191.631-1.848.015-.668-.147-1.344-.487-2.029-.344-.693-.782-1.228-1.317-1.605-.53-.388-1.145-.586-1.843-.595-.701-.016-1.479.188-2.334.613l-2.972 1.475 8.557 17.243-4.408 2.188zm17.57-31.91l4.662-2.313c1.67-.829 3.324-1.21 4.964-1.144a8.548 8.548 0 014.524 1.472c1.372.909 2.486 2.225 3.342 3.948.828 1.67 1.181 3.309 1.057 4.918a8.527 8.527 0 01-1.603 4.411c-.95 1.326-2.259 2.402-3.928 3.231l-4.662 2.313c-1.677.832-3.331 1.231-4.964 1.195a8.534 8.534 0 01-4.488-1.375c-1.35-.878-2.443-2.162-3.282-3.852-.855-1.724-1.23-3.407-1.123-5.05a8.624 8.624 0 011.589-4.493c.946-1.349 2.25-2.436 3.912-3.261zm1.829 3.685c-.896.445-1.597 1.017-2.104 1.717-.503.689-.767 1.488-.79 2.396-.023.908.233 1.901.769 2.98.512 1.032 1.131 1.794 1.858 2.288.734.49 1.524.736 2.371.739.847.002 1.712-.216 2.594-.653l4.693-2.329c.889-.441 1.58-1 2.073-1.676.5-.68.763-1.453.79-2.32.033-.871-.202-1.812-.704-2.823-.535-1.079-1.168-1.885-1.898-2.419-.723-.538-1.51-.82-2.361-.846-.843-.03-1.709.176-2.598.617l-4.693 2.329zm1.296-8.483l10.952 22.068-4.184 2.076-10.952-22.068 4.184-2.076z" fill="#7A7A7A"/></svg>