<svg width="895" height="819" fill="none" xmlns="http://www.w3.org/2000/svg"><path d="M690.479 574.686c50.929-7.245 86.341-54.404 79.096-105.332-7.245-50.929-54.404-86.341-105.333-79.095-50.928 7.245-86.34 54.404-79.095 105.332 7.245 50.928 54.404 86.341 105.332 79.095z" stroke="#E30613" stroke-miterlimit="10"/><path d="M655.991 481.708l-13.928-9.328-24.962-5.484-45.286-31.597 4.007-5.732-9.891-7.933-28.862-22.624-7.182-12.53 11.013-7.34 11.187 10.839 36.795 20.85 23.413 19.425 23.475 12.216 32.466 21.703-12.245 17.535z" fill="#E30613"/><path d="M719.893 530.526l-16.621-15.602-46.664.491-52.021-53.87 17.5-16.891-9.792-14.4-29.426-40.68 3.159-27.689 25.981-53.487 17.614 49.561 53.359 9.799 22.167 35.735-10.607 54.357 122.798-9.658-97.447 82.334z" fill="#E30613"/><path d="M741.164 486.2l-22.992-24.58-15.868-91.959-21.584-16.356-22.489-56.374 53.146 16.656L741.164 486.2zm-80.623-151.32l-5.525-.403-17.688-27.643-3.267-15.566.366-.053a14.65 14.65 0 0010.925-3.422l.309-.214 4.627 8.648 8.389 31.752 1.864 6.901z" fill="#E30613"/><path d="M784.065 524.895c-12.774 27.426-1.877 55.323-7.09 57.355-28.135 11.135-98.507-17.267-97.66-25.403.578-5.72-10.043-66.295 6.161-87.043 5.753-7.306 39.69 21.151 44.163 16.066 19.929-22.738 60.849 25.205 54.426 39.025zm-135.144 3.331l20.019 9.888-47.256 69.149-138.251 119.963-36.147-22.028-7.961-23.254-11.327-.121-8.834-3.838 20.488-19.047-16.957-16.777L572.64 537.787l6.345 13.566 35.111-21.298-6.244 34.173 41.069-36.002z" fill="#E30613"/><path d="M796.315 481.614l-9.762 6.348c.546 9.806-7.94 6.02-3.232 13.808l-22.515 13.392-11.583-9.798 7.899-8.936a49.827 49.827 0 0011.745-23.917l2.6-13.955 4.768 2.718-6.219 23.369 9.325-16.339 5.263 2.851-.727 6.115 9.591-6.594 2.847 10.938z" fill="#E30613"/><path d="M839.208 490.898c23.667 18.098-68.063 73.297-96.548 81.969-28.485 8.671-1.781-44.749-6.576-50.52-19.013-22.87 11.909-33.994 40.36-42.661 28.452-8.666-16.225-49.113 62.764 11.212z" fill="#fff"/><path d="M740.537 521.408c3.05 21.439 47.183 16.281 25.777 19.326a39.205 39.205 0 01-44.338-33.294c-1.525-10.719 18.088-23.257 37.496-26.018 19.409-2.761-20.46 29.266-18.935 39.986zm65.369-19.897c5.479-.779 9.288-5.852 8.509-11.331-.78-5.479-5.853-9.289-11.332-8.51-5.479.78-9.289 5.853-8.509 11.332.779 5.479 5.853 9.289 11.332 8.509z" fill="#E30613"/><path d="M604.787 543.879l26.162-11.873-377.404 137.547L619.793 384.83l7.648-52.475L99.545 756.876l543.878-528.721 10.069-10.636L240.71 483.592l422.06-389.46-10.047-25.98-412.013 415.44 320.219-185.691-117.344 107.684L93.492 763.036l475.236-375.221-348.663 295.162 384.722-139.098z" fill="#1D1D1B"/><path d="M659.741 19.129l-82.753 579.786 6.99-7.21-26.621 138.76a14.39 14.39 0 0011.846 16.893l13.418 2.167a14.403 14.403 0 0010.853-2.67 14.389 14.389 0 005.669-9.632l16.349-121.199 12.754-17.065 58.971-472.405a148.56 148.56 0 00-19.067-93.202l-8.228-14.147" fill="#1D1D1B"/><path d="M682.427 131.311l-59.266 474.146L661.27 246.64l-81.708 336.931 73.489-488.056 9.601 121.686 19.775-85.89z" fill="#fff"/><path d="M714.491 255.235l13.822-12.427 1.41 20.891" fill="#1D1D1B"/><path d="M572.823 624.34l26.188 5.196a2.76 2.76 0 012.168 3.242l-1.669 8.41a2.753 2.753 0 01-3.241 2.168l-26.188-5.196 2.742-13.82zm-3.843 25.955l26.188 5.196a2.759 2.759 0 012.168 3.242l-1.669 8.41a2.755 2.755 0 01-3.241 2.168l-26.188-5.196 2.742-13.82zm-6.302 28.552l26.188 5.197a2.756 2.756 0 012.168 3.241l-1.676 8.443a2.758 2.758 0 01-3.241 2.168l-26.188-5.196 2.742-13.82.007-.033zm-3.89 26.015l26.188 5.196a2.759 2.759 0 012.168 3.242l-1.669 8.41a2.755 2.755 0 01-3.241 2.168l-26.188-5.196 2.742-13.82z" fill="#fff"/><path d="M842.239 337.663l-97.233-64.182 10.523 131.03m27.982 43.195l-59.073-22.028 21.536 67.819" fill="#1D1D1B"/></svg>