<svg width="61" height="168" fill="none" xmlns="http://www.w3.org/2000/svg"><path d="M57.72 146.692v3.911l-36.846-14.385v-3.919l24.964 9.673.577 4.218v-3.911l11.306 4.413z" fill="#E9E9E9"/><path d="M55.975 131.505l5.012 4.885H20.873v-4.885h35.102zm2.457-11.441l-4.083 4.638H25.766v-.914l10.587-3.724h22.08zm-3.543-24.919l3.543 4.645H34.66l-7.949-4.645h28.178zM23.496 59.107v4.728h34.869v-4.728h-34.87zM38.69 47.262l1.978 4.54H24.77l-3.184-5.027 17.105.487zm18.7-26.763l.997.794H18.274v-4.645H43.98l13.41 3.851zM58.395 0v4.645H38.728L21.12 1.394l-2.84 3.251V0h40.114z" fill="#E9E9E9"/><path d="M46.415 151.075l3.993 1.431v-16.603h-3.993v15.172zm.322-43.65v4.638L22.267 99.79v-4.645l24.47 12.28z" fill="#E9E9E9"/><path d="M50.236 112.062v-4.637l-24.47 12.272v4.645l24.47-12.28zm-5.852-48.437l-4.413-.794-1.011-7.882 1.708-3.147 3.716 11.823zm-18.618-16.37l-4.18-.48-3.335 18.903 4.18-1.566 3.335-16.857zm30.246-2.773v4.24l-11.455-4.727v-4.503l-.922 4.12-25.384-10.488v-4.241l37.761 15.599z" fill="#E9E9E9"/><path d="M58.365 28.224l-2.353 4.885h-37.76v-4.885h40.113z" fill="#E9E9E9"/><path d="M44.557 47.217l4.098 3.491V32.322h-4.098v14.895zm13.838-30.434v4.51L18.281 4.728V.218l40.114 16.565zM0 2.862l17.315 7.485-8.654 2.945 3.724-4.983-4.226 1.784L0 2.862zm23.75 160.373V168h29.16v-4.765H23.75z" fill="#E9E9E9"/><path d="M55.997 159.301l2.555 3.911L52.911 168l-2.555-3.911 5.641-4.788zM23.758 168l2.547-3.911-5.521-4.698-2.555 3.911 5.53 4.698z" fill="#E9E9E9"/><path d="M58.552 163.213l-8.076-5.994v-4.78l8.076 3.132v7.642zm-40.323.089l2.555-3.911 2.502 1.596 5.252-14.213-3.709-2.285-6.6 18.813zM60.867 83.36v4.503L11.471 68.96v-5.163l33.573 12.835 3.521 6.15V78.28l12.302 5.08z" fill="#E9E9E9"/><path d="M26.71 84.866v4.547l17.614-8.376-2.847-5.68-3.76 1.971 2.427 2.578-4.054-1.027-9.38 5.987z" fill="#E9E9E9"/></svg>